HIERARCHY
ROOT Hips
{
	OFFSET	0.00	0.00	0.00
	CHANNELS 6 Xposition Yposition Zposition Zrotation Xrotation Yrotation
	JOINT LeftUpLeg
	{
		OFFSET	 0.126116	-0.014019	-0.065224
		CHANNELS 3 Zrotation Xrotation Yrotation
		JOINT LeftLeg
		{
			OFFSET	 0.000000	 0.000000	 0.569914
			CHANNELS 3 Zrotation Xrotation Yrotation
			JOINT LeftFoot
			{
				OFFSET	 0.000000	 0.000000	 0.544423
				CHANNELS 3 Zrotation Xrotation Yrotation
				JOINT LeftToeBase
				{
					OFFSET	 0.000000	 0.000000	 0.207117
					CHANNELS 3 Zrotation Xrotation Yrotation
					End Site
					{
						OFFSET	 0.000000	 0.000000	 0.207117
					}
				}
			}
		}
	}
	JOINT RightUpLeg
	{
		OFFSET	-0.124023	-0.008373	-0.065224
		CHANNELS 3 Zrotation Xrotation Yrotation
		JOINT RightLeg
		{
			OFFSET	 0.000000	 0.000000	 0.570047
			CHANNELS 3 Zrotation Xrotation Yrotation
			JOINT RightFoot
			{
				OFFSET	 0.000000	 0.000000	 0.544354
				CHANNELS 3 Zrotation Xrotation Yrotation
				JOINT RightToeBase
				{
					OFFSET	 0.000000	 0.000000	 0.207540
					CHANNELS 3 Zrotation Xrotation Yrotation
					End Site
					{
						OFFSET	 0.000000	 0.000000	 0.207540
					}
				}
			}
		}
	}
	JOINT Spine
	{
		OFFSET	 0.000184	-0.007763	 0.117403
		CHANNELS 3 Zrotation Xrotation Yrotation
		JOINT Spine1
		{
			OFFSET	 0.000000	 0.000000	 0.137269
			CHANNELS 3 Zrotation Xrotation Yrotation
			JOINT Spine2
			{
				OFFSET	 0.000000	 0.000000	 0.156879
				CHANNELS 3 Zrotation Xrotation Yrotation
				JOINT LeftShoulder
				{
					OFFSET	 0.080501	-0.002496	 0.160144
					CHANNELS 3 Zrotation Xrotation Yrotation
					JOINT LeftArm
					{
						OFFSET	 0.000000	 0.000000	 0.164363
						CHANNELS 3 Zrotation Xrotation Yrotation
						JOINT LeftForeArm
						{
							OFFSET	 0.000000	 0.000000	 0.364576
							CHANNELS 3 Zrotation Xrotation Yrotation
							JOINT LeftHand
							{
								OFFSET	 0.000000	 0.000000	 0.360812
								CHANNELS 3 Zrotation Xrotation Yrotation
								JOINT LeftHandIndex1
								{
									OFFSET	 0.000000	 0.000000	 0.086006
									CHANNELS 3 Zrotation Xrotation Yrotation
									JOINT LeftHandIndex2
									{
										OFFSET	 0.000000	 0.000000	 0.047236
										CHANNELS 3 Zrotation Xrotation Yrotation
										JOINT LeftHandIndex3
										{
											OFFSET	-0.004284	-0.000551	 0.038166
											CHANNELS 3 Zrotation Xrotation Yrotation
											End Site
											{
												OFFSET	-0.004284	-0.000551	 0.038166
											}
										}
									}
								}
							}
						}
					}
				}
				JOINT Neck
				{
					OFFSET	 0.000000	 0.000000	 0.176489
					CHANNELS 3 Zrotation Xrotation Yrotation
					JOINT Head
					{
						OFFSET	 0.000000	-0.001747	 0.077940
						CHANNELS 3 Zrotation Xrotation Yrotation
						End Site
						{
							OFFSET	 0.000000	-0.001747	 0.077940
						}
					}
				}
				JOINT RightShoulder
				{
					OFFSET	-0.080363	 0.000306	 0.159706
					CHANNELS 3 Zrotation Xrotation Yrotation
					JOINT RightArm
					{
						OFFSET	 0.000000	 0.000000	 0.164196
						CHANNELS 3 Zrotation Xrotation Yrotation
						JOINT RightForeArm
						{
							OFFSET	 0.000000	 0.000000	 0.365611
							CHANNELS 3 Zrotation Xrotation Yrotation
							JOINT RightHand
							{
								OFFSET	 0.000000	 0.000000	 0.360648
								CHANNELS 3 Zrotation Xrotation Yrotation
								JOINT RightHandIndex1
								{
									OFFSET	 0.000000	 0.000000	 0.069977
									CHANNELS 3 Zrotation Xrotation Yrotation
									JOINT RightHandIndex2
									{
										OFFSET	 0.000000	 0.000000	 0.052305
										CHANNELS 3 Zrotation Xrotation Yrotation
										JOINT RightHandIndex3
										{
											OFFSET	 0.009002	-0.000782	 0.042196
											CHANNELS 3 Zrotation Xrotation Yrotation
											End Site
											{
												OFFSET	 0.009002	-0.000782	 0.042196
											}
										}
									}
								}
							}
						}
					}
				}
			}
		}
	}
}
MOTION
Frames:    8
Frame Time: 0.03333334
 0.013620	 0.053082	 1.202199	 4.498012	-1.348106	-2.735335	-3.163881	-12.476080	-171.340300	 0.706162	-38.735640	 0.176617	 49.671520	 80.610730	-53.565370	-2.370457	 31.436740	-0.065897	-0.716665	-29.880920	-175.675000	 10.447740	-51.824130	 8.851913	 15.788470	 73.147090	-12.049830	 2.358358	 33.090270	 0.105321	-6.548946	 8.703547	 2.143986	-2.087468	 2.050985	-1.534651	 3.325599	-1.938169	 1.640749	-93.862200	 58.899800	 175.558700	 16.742630	 36.866420	-41.416380	-1.086756	-0.052952	-0.637938	-2.483818	-27.230040	-7.765393	-4.870544	 19.223650	-2.787680	-3.882677	 21.458080	 2.203930	-4.807189	 5.558155	 0.146227	-0.099304	-5.047215	 0.172212	 1.122810	 1.993118	 2.819664	 89.803980	 61.616760	-179.947800	-21.314890	 54.450800	 12.147300	-1.215583	-2.244887	 12.011600	-4.172831	-13.047010	 0.806604	 6.298209	 25.350690	-0.557662	 1.817772	 45.242360	-6.932655	 0.452561	 24.598600	 3.605801
 0.013047	 0.042218	 1.201837	 4.819663	-1.178530	-2.726573	-3.575799	-12.056740	-171.420000	 0.854980	-38.586950	 0.313261	 51.058780	 80.865930	-55.135770	-2.369910	 31.529870	-0.067998	-1.388861	-30.846720	-175.564000	 10.524660	-50.675830	 8.773277	 18.008950	 74.313640	-14.664250	 2.358684	 33.042410	 0.104201	-7.007739	 8.607197	 2.088410	-2.107266	 2.059570	-1.516513	 3.275201	-2.058592	 1.646610	-93.921670	 58.934060	 175.427800	 16.631130	 36.171480	-41.921460	-1.524757	-0.048318	-0.720516	-3.106352	-28.477610	-8.624324	-4.870276	 19.235990	-2.789696	-3.880075	 21.491350	 2.201278	-4.806592	 5.565188	 0.145816	-0.081544	-5.068384	 0.181264	 1.127638	 1.928174	 2.754860	 89.785390	 61.640020	-179.992200	-21.144380	 54.784980	 11.272980	-1.175575	-2.309897	 12.478140	-3.863940	-14.107460	 0.822726	 6.294255	 24.928370	-0.544857	 1.875449	 44.781800	-6.984152	 0.518651	 24.309610	 3.572135
 0.011965	 0.020496	 1.201039	 5.315758	-0.794834	-2.732622	-4.130762	-11.179840	-171.531900	 1.113371	-38.197570	 0.470384	 53.819030	 81.281470	-58.125160	-2.369056	 31.671820	-0.071216	-2.581987	-32.575050	-175.401700	 10.634280	-47.892670	 8.501974	 20.686380	 75.381930	-18.027770	 2.358948	 33.002950	 0.103293	-7.726008	 8.350521	 1.973369	-2.162164	 2.125981	-1.447713	 3.184950	-2.286269	 1.637886	-94.031560	 58.968260	 175.189300	 16.158440	 34.870650	-42.818170	-2.064170	-0.041289	-0.863655	-4.021873	-30.633240	-9.836214	-4.867652	 19.307280	-2.795172	-3.874380	 21.564150	 2.195484	-4.805295	 5.580414	 0.144927	-0.055268	-5.093080	 0.207959	 1.115175	 1.828693	 2.672706	 89.745670	 61.704760	 179.912900	-20.844820	 55.403660	 9.786575	-1.233583	-2.392894	 12.989200	-3.432452	-15.901600	 0.847700	 6.284785	 24.154090	-0.543183	 1.971899	 43.992620	-7.069971	 0.669500	 23.644320	 3.496318
 0.010570	-0.007367	 1.199809	 5.833148	-0.297879	-2.756930	-4.755500	-9.977962	-171.669500	 1.316553	-37.554960	 0.587511	 57.369500	 81.735690	-61.866670	-2.368165	 31.818520	-0.074541	-4.031883	-34.271740	-175.356700	 10.572190	-43.521930	 7.855995	 23.409740	 75.910900	-21.557340	 2.359037	 32.989220	 0.102981	-8.491366	 7.997214	 1.827818	-2.244518	 2.244210	-1.344191	 3.077349	-2.560424	 1.613718	-94.160490	 58.989270	 174.911600	 15.378140	 33.299120	-43.857460	-2.509718	-0.032850	-1.019490	-4.999911	-33.038440	-11.070790	-4.863113	 19.423280	-2.802785	-3.867079	 21.657180	 2.188071	-4.803650	 5.599767	 0.143792	-0.028751	-5.112411	 0.245922	 1.082868	 1.726096	 2.600870	 89.695670	 61.795350	 179.792800	-20.468370	 56.102070	 8.230126	-1.404443	-2.399843	 13.007260	-3.013742	-17.885630	 0.893959	 6.272021	 23.248760	-0.555890	 2.076699	 43.106950	-7.162773	 0.863937	 22.775260	 3.400743
 0.009425	-0.033897	 1.198366	 6.119259	 0.121676	-2.902934	-5.132925	-8.639012	-171.668500	 1.433609	-36.696530	 0.645968	 60.967120	 82.099750	-65.594630	-2.367014	 32.005120	-0.078793	-4.832700	-35.290970	-175.224700	 10.381650	-38.678280	 7.015443	 23.308320	 74.714750	-22.183890	 2.359972	 32.852090	 0.099791	-9.054158	 7.636830	 1.822987	-2.311445	 2.487252	-1.240075	 2.994225	-2.823301	 1.574360	-94.260840	 58.990980	 174.697300	 14.552560	 31.907070	-44.809670	-3.112196	-0.022451	-1.162009	-5.981364	-35.286810	-11.708600	-4.855893	 19.590560	-2.810311	-3.858778	 21.762750	 2.179640	-4.799582	 5.647787	 0.140982	-0.015432	-5.142950	 0.278513	 1.032809	 1.641334	 2.576830	 89.634030	 61.873520	 179.644200	-20.051150	 56.644260	 7.054914	-1.754395	-2.345511	 12.521430	-2.864461	-19.591230	 0.724814	 6.257208	 22.340170	-0.582883	 2.164062	 42.345360	-7.239756	 1.067736	 21.850430	 3.303205
 0.008084	-0.063616	 1.196244	 6.363186	 0.580500	-3.124465	-5.474504	-7.051266	-171.615900	 1.534269	-35.582250	 0.687571	 65.019340	 82.447990	-69.767480	-2.365540	 32.240490	-0.084169	-5.526278	-35.883240	-175.106000	 10.174840	-32.680680	 5.954405	 22.380340	 72.692790	-22.011030	 2.361374	 32.640690	 0.094909	-9.630548	 7.211538	 1.872920	-2.380266	 2.776065	-1.119135	 2.901573	-3.105483	 1.520038	-94.367090	 58.985200	 174.471700	 13.686120	 30.449500	-45.797490	-3.880644	-0.008414	-1.324437	-7.143577	-37.821170	-12.255460	-4.846296	 19.807870	-2.819140	-3.848598	 21.891770	 2.169301	-4.793794	 5.715905	 0.136984	-0.005196	-5.183347	 0.314559	 0.963055	 1.549721	 2.567602	 89.557260	 61.960280	 179.457800	-19.504970	 57.139170	 6.003436	-2.249386	-2.190224	 11.487280	-2.814974	-21.439950	 0.451141	 6.238511	 21.272140	-0.620378	 2.258012	 41.501890	-7.322132	 1.308080	 20.741650	 3.191754
 0.006827	-0.087553	 1.193917	 6.455215	 0.811916	-3.300709	-5.671422	-5.592791	-171.569200	 1.586288	-34.644110	 0.701331	 67.048130	 82.642560	-71.855400	-2.362544	 32.704850	-0.094840	-5.497495	-36.085540	-174.922700	 9.776765	-28.254460	 5.062597	 27.465920	 73.358830	-27.461720	 2.357903	 33.157320	 0.106873	-10.108890	 6.895678	 1.943231	-2.416032	 3.169411	-1.026201	 2.850609	-3.370677	 1.477299	-94.422300	 58.974800	 174.355700	 12.960250	 29.532920	-46.481190	-4.471695	 0.004350	-1.468311	-8.280887	-39.691440	-12.765740	-4.836528	 20.005270	-2.821528	-3.837513	 22.031790	 2.158039	-4.783489	 5.837007	 0.129861	 0.007920	-5.227872	 0.330200	 0.922183	 1.455426	 2.544570	 89.502170	 62.005960	 179.323800	-18.858430	 57.443060	 5.135311	-2.740350	-2.048833	 10.590440	-2.844656	-23.081360	 0.029490	 6.218832	 20.221140	-0.661925	 2.387420	 40.296710	-7.434880	 1.532106	 19.690710	 3.091447
 0.005107	-0.113949	 1.190133	 6.527333	 1.027978	-3.499850	-5.863499	-3.967950	-171.519600	 1.640127	-33.738360	 0.715116	 69.599890	 82.879880	-74.464710	-2.358434	 33.313900	-0.108958	-4.867902	-37.036220	-174.479600	 9.589045	-25.159380	 4.438442	 38.820080	 75.195580	-39.087750	 2.352236	 33.953590	 0.125563	-10.647990	 6.549856	 2.031002	-2.444053	 3.635373	-0.919498	 2.794652	-3.668703	 1.425740	-94.475170	 58.961400	 174.245200	 12.270880	 28.685540	-47.193580	-5.128729	 0.020447	-1.632627	-9.640045	-41.661270	-13.402030	-4.824859	 20.234790	-2.822791	-3.824074	 22.200860	 2.144388	-4.770089	 5.994174	 0.120575	 0.024230	-5.281774	 0.343722	 0.876027	 1.343410	 2.513368	 89.442220	 62.050000	 179.177500	-18.043530	 57.730830	 3.980415	-3.310589	-1.964871	 10.000340	-2.925336	-24.896680	-0.501422	 6.194475	 18.976810	-0.712340	 2.543353	 38.774070	-7.569536	 1.790878	 18.456300	 2.980004
